<svg width="230" height="128" viewBox="0 0 230 128" fill="none" xmlns="http://www.w3.org/2000/svg">
<rect width="229.33" height="128" fill="url(#paint0_linear_2_182)"/>
<path d="M18.6037 59.2727V68H16.7585V59.2727H18.6037ZM28.0215 59.2727V68H26.4278L22.6309 62.5071H22.567V68H20.7218V59.2727H22.3411L26.1082 64.7614H26.1849V59.2727H28.0215ZM31.7227 59.2727L33.8321 65.9034H33.9131L36.0267 59.2727H38.0722L35.0636 68H32.6858L29.673 59.2727H31.7227ZM39.7226 68V59.2727H45.6033V60.794H41.5678V62.8736H45.3007V64.3949H41.5678V66.4787H45.6203V68H39.7226ZM54.97 59.2727V68H53.3762L49.5793 62.5071H49.5154V68H47.6702V59.2727H49.2896L53.0566 64.7614H53.1333V59.2727H54.97ZM56.7621 60.794V59.2727H63.9297V60.794H61.2578V68H59.4339V60.794H56.7621ZM73.3315 63.6364C73.3315 64.5881 73.1511 65.3977 72.7903 66.0653C72.4324 66.733 71.9437 67.2429 71.3244 67.5952C70.708 67.9446 70.0148 68.1193 69.2449 68.1193C68.4693 68.1193 67.7733 67.9432 67.1568 67.5909C66.5403 67.2386 66.0531 66.7287 65.6952 66.0611C65.3372 65.3935 65.1582 64.5852 65.1582 63.6364C65.1582 62.6847 65.3372 61.875 65.6952 61.2074C66.0531 60.5398 66.5403 60.0312 67.1568 59.6818C67.7733 59.3295 68.4693 59.1534 69.2449 59.1534C70.0148 59.1534 70.708 59.3295 71.3244 59.6818C71.9437 60.0312 72.4324 60.5398 72.7903 61.2074C73.1511 61.875 73.3315 62.6847 73.3315 63.6364ZM71.4608 63.6364C71.4608 63.0199 71.3685 62.5 71.1838 62.0767C71.002 61.6534 70.7449 61.3324 70.4125 61.1136C70.0801 60.8949 69.6909 60.7855 69.2449 60.7855C68.7989 60.7855 68.4097 60.8949 68.0773 61.1136C67.7449 61.3324 67.4864 61.6534 67.3017 62.0767C67.1199 62.5 67.029 63.0199 67.029 63.6364C67.029 64.2528 67.1199 64.7727 67.3017 65.196C67.4864 65.6193 67.7449 65.9403 68.0773 66.1591C68.4097 66.3778 68.7989 66.4872 69.2449 66.4872C69.6909 66.4872 70.0801 66.3778 70.4125 66.1591C70.7449 65.9403 71.002 65.6193 71.1838 65.196C71.3685 64.7727 71.4608 64.2528 71.4608 63.6364ZM75.2984 68V59.2727H78.7415C79.4006 59.2727 79.9631 59.3906 80.429 59.6264C80.8978 59.8594 81.2543 60.1903 81.4987 60.6193C81.7458 61.0455 81.8694 61.5469 81.8694 62.1236C81.8694 62.7031 81.7444 63.2017 81.4944 63.6193C81.2444 64.0341 80.8822 64.3523 80.4077 64.5739C79.9362 64.7955 79.3651 64.9062 78.6947 64.9062H76.3893V63.4233H78.3964C78.7487 63.4233 79.0413 63.375 79.2742 63.2784C79.5072 63.1818 79.6805 63.0369 79.7941 62.8438C79.9106 62.6506 79.9688 62.4105 79.9688 62.1236C79.9688 61.8338 79.9106 61.5895 79.7941 61.3906C79.6805 61.1918 79.5058 61.0412 79.27 60.9389C79.037 60.8338 78.743 60.7812 78.3879 60.7812H77.1435V68H75.2984ZM80.0114 64.0284L82.1805 68H80.1435L78.0214 64.0284H80.0114ZM82.8987 59.2727H84.9655L86.9555 63.0312H87.0408L89.0308 59.2727H91.0976L87.9143 64.9148V68H86.082V64.9148L82.8987 59.2727ZM96.0827 68V59.2727H99.5259C100.188 59.2727 100.752 59.3991 101.218 59.652C101.684 59.902 102.039 60.25 102.283 60.696C102.53 61.1392 102.654 61.6506 102.654 62.2301C102.654 62.8097 102.529 63.321 102.279 63.7642C102.029 64.2074 101.667 64.5526 101.192 64.7997C100.721 65.0469 100.15 65.1705 99.479 65.1705H97.2844V63.6918H99.1808C99.5359 63.6918 99.8285 63.6307 100.059 63.5085C100.292 63.3835 100.465 63.2116 100.578 62.9929C100.695 62.7713 100.753 62.517 100.753 62.2301C100.753 61.9403 100.695 61.6875 100.578 61.4716C100.465 61.2528 100.292 61.0838 100.059 60.9645C99.8256 60.8423 99.5302 60.7812 99.1722 60.7812H97.9279V68H96.0827ZM109.843 59.2727H111.688V64.9403C111.688 65.5767 111.536 66.1335 111.232 66.6108C110.931 67.0881 110.509 67.4602 109.966 67.7273C109.424 67.9915 108.792 68.1236 108.07 68.1236C107.346 68.1236 106.712 67.9915 106.17 67.7273C105.627 67.4602 105.205 67.0881 104.904 66.6108C104.603 66.1335 104.452 65.5767 104.452 64.9403V59.2727H106.297V64.7827C106.297 65.1151 106.37 65.4105 106.515 65.669C106.662 65.9276 106.87 66.1307 107.137 66.2784C107.404 66.4261 107.715 66.5 108.07 66.5C108.428 66.5 108.739 66.4261 109.003 66.2784C109.27 66.1307 109.476 65.9276 109.621 65.669C109.769 65.4105 109.843 65.1151 109.843 64.7827V59.2727ZM113.806 68V59.2727H115.651V66.4787H119.393V68H113.806ZM125.949 61.7827C125.915 61.4389 125.769 61.1719 125.51 60.9815C125.252 60.7912 124.901 60.696 124.458 60.696C124.157 60.696 123.902 60.7386 123.695 60.8239C123.488 60.9062 123.328 61.0213 123.218 61.169C123.11 61.3168 123.056 61.4844 123.056 61.6719C123.05 61.8281 123.083 61.9645 123.154 62.081C123.228 62.1974 123.328 62.2983 123.456 62.3835C123.584 62.4659 123.732 62.5384 123.899 62.6009C124.067 62.6605 124.246 62.7116 124.436 62.7543L125.22 62.9418C125.601 63.027 125.951 63.1406 126.269 63.2827C126.587 63.4247 126.863 63.5994 127.095 63.8068C127.328 64.0142 127.509 64.2585 127.637 64.5398C127.767 64.821 127.834 65.1435 127.837 65.5071C127.834 66.0412 127.698 66.5043 127.428 66.8963C127.161 67.2855 126.774 67.5881 126.269 67.804C125.766 68.017 125.159 68.1236 124.449 68.1236C123.745 68.1236 123.131 68.0156 122.608 67.7997C122.088 67.5838 121.682 67.2642 121.389 66.8409C121.1 66.4148 120.948 65.8878 120.934 65.2599H122.719C122.739 65.5526 122.823 65.7969 122.97 65.9929C123.121 66.1861 123.321 66.3324 123.571 66.4318C123.824 66.5284 124.11 66.5767 124.428 66.5767C124.74 66.5767 125.012 66.5312 125.242 66.4403C125.475 66.3494 125.655 66.223 125.783 66.0611C125.911 65.8991 125.975 65.7131 125.975 65.5028C125.975 65.3068 125.916 65.142 125.8 65.0085C125.686 64.875 125.519 64.7614 125.297 64.6676C125.078 64.5739 124.81 64.4886 124.492 64.4119L123.541 64.1733C122.806 63.9943 122.225 63.7145 121.799 63.3338C121.372 62.9531 121.161 62.4403 121.164 61.7955C121.161 61.267 121.301 60.8054 121.586 60.4105C121.872 60.0156 122.266 59.7074 122.766 59.4858C123.266 59.2642 123.834 59.1534 124.47 59.1534C125.118 59.1534 125.684 59.2642 126.166 59.4858C126.652 59.7074 127.03 60.0156 127.3 60.4105C127.57 60.8054 127.709 61.2628 127.718 61.7827H125.949ZM129.678 68V59.2727H135.559V60.794H131.523V62.8736H135.256V64.3949H131.523V66.4787H135.576V68H129.678Z" fill="#E2BFB3"/>
<path d="M17.9787 87H16.348L20.0121 76.8182H21.7869L25.451 87H23.8203L20.9418 78.6676H20.8622L17.9787 87ZM18.2521 83.0128H23.5419V84.3054H18.2521V83.0128ZM31.6394 83.8331V79.3636H33.1309V87H31.6692V85.6776H31.5897C31.414 86.0852 31.1323 86.425 30.7445 86.6967C30.36 86.9652 29.8811 87.0994 29.3077 87.0994C28.8172 87.0994 28.383 86.9917 28.0051 86.7763C27.6306 86.5575 27.3356 86.2344 27.1202 85.8068C26.9081 85.3793 26.802 84.8506 26.802 84.2209V79.3636H28.2885V84.0419C28.2885 84.5623 28.4327 84.9766 28.7211 85.2848C29.0094 85.593 29.3839 85.7472 29.8446 85.7472C30.123 85.7472 30.3998 85.6776 30.6749 85.5384C30.9533 85.3991 31.1837 85.1887 31.3659 84.907C31.5516 84.6252 31.6427 84.2673 31.6394 83.8331ZM38.6928 79.3636V80.5568H34.5217V79.3636H38.6928ZM35.6403 77.5341H37.1268V84.7578C37.1268 85.0462 37.1699 85.2633 37.256 85.4091C37.3422 85.5516 37.4532 85.6494 37.5891 85.7024C37.7283 85.7521 37.8791 85.777 38.0415 85.777C38.1609 85.777 38.2653 85.7687 38.3548 85.7521C38.4442 85.7356 38.5138 85.7223 38.5636 85.7124L38.832 86.9403C38.7459 86.9735 38.6232 87.0066 38.4641 87.0398C38.305 87.0762 38.1062 87.0961 37.8675 87.0994C37.4764 87.1061 37.1119 87.0365 36.7738 86.8906C36.4357 86.7448 36.1623 86.5194 35.9535 86.2145C35.7447 85.9096 35.6403 85.5268 35.6403 85.0661V77.5341ZM43.4718 87.1541C42.7559 87.1541 42.1311 86.9901 41.5975 86.6619C41.0639 86.3338 40.6496 85.8748 40.3546 85.2848C40.0596 84.6948 39.9121 84.0054 39.9121 83.2166C39.9121 82.4245 40.0596 81.7318 40.3546 81.1385C40.6496 80.5452 41.0639 80.0845 41.5975 79.7564C42.1311 79.4283 42.7559 79.2642 43.4718 79.2642C44.1877 79.2642 44.8124 79.4283 45.3461 79.7564C45.8797 80.0845 46.294 80.5452 46.589 81.1385C46.8839 81.7318 47.0314 82.4245 47.0314 83.2166C47.0314 84.0054 46.8839 84.6948 46.589 85.2848C46.294 85.8748 45.8797 86.3338 45.3461 86.6619C44.8124 86.9901 44.1877 87.1541 43.4718 87.1541ZM43.4767 85.9062C43.9408 85.9062 44.3252 85.7836 44.6301 85.5384C44.9351 85.2931 45.1605 84.9666 45.3063 84.5589C45.4554 84.1513 45.53 83.7022 45.53 83.2116C45.53 82.7244 45.4554 82.277 45.3063 81.8693C45.1605 81.4583 44.9351 81.1286 44.6301 80.88C44.3252 80.6314 43.9408 80.5071 43.4767 80.5071C43.0094 80.5071 42.6216 80.6314 42.3134 80.88C42.0085 81.1286 41.7814 81.4583 41.6323 81.8693C41.4864 82.277 41.4135 82.7244 41.4135 83.2116C41.4135 83.7022 41.4864 84.1513 41.6323 84.5589C41.7814 84.9666 42.0085 85.2931 42.3134 85.5384C42.6216 85.7836 43.0094 85.9062 43.4767 85.9062ZM53.19 82.0533V83.3409H48.6758V82.0533H53.19ZM60.8935 81.228L59.5462 81.4666C59.4898 81.2943 59.4003 81.1302 59.2777 80.9744C59.1584 80.8187 58.996 80.6911 58.7905 80.5916C58.585 80.4922 58.3281 80.4425 58.0199 80.4425C57.599 80.4425 57.2476 80.5369 56.9659 80.7259C56.6842 80.9115 56.5433 81.1518 56.5433 81.4467C56.5433 81.7019 56.6378 81.9074 56.8267 82.0632C57.0156 82.219 57.3205 82.3466 57.7415 82.446L58.9545 82.7244C59.6572 82.8868 60.1809 83.1371 60.5256 83.4751C60.8703 83.8132 61.0426 84.2524 61.0426 84.7926C61.0426 85.25 60.91 85.6577 60.6449 86.0156C60.383 86.3703 60.0168 86.6487 59.5462 86.8509C59.0788 87.053 58.5369 87.1541 57.9205 87.1541C57.0653 87.1541 56.3677 86.9718 55.8274 86.6072C55.2872 86.2393 54.9557 85.7173 54.8331 85.0412L56.2699 84.8224C56.3594 85.197 56.5433 85.4804 56.8217 85.6726C57.1001 85.8615 57.4631 85.956 57.9105 85.956C58.3977 85.956 58.7872 85.8549 59.0788 85.6527C59.3705 85.4472 59.5163 85.197 59.5163 84.902C59.5163 84.6634 59.4268 84.4628 59.2479 84.3004C59.0722 84.138 58.8021 84.0154 58.4375 83.9325L57.1449 83.6491C56.4323 83.4867 55.9053 83.2282 55.5639 82.8736C55.2259 82.5189 55.0568 82.0698 55.0568 81.5263C55.0568 81.0755 55.1828 80.6811 55.4347 80.343C55.6866 80.005 56.0346 79.7415 56.4787 79.5526C56.9228 79.3603 57.4316 79.2642 58.005 79.2642C58.8303 79.2642 59.4799 79.4432 59.9538 79.8011C60.4278 80.1558 60.741 80.6314 60.8935 81.228ZM63.6167 89.8636C63.3946 89.8636 63.1924 89.8454 63.0101 89.8089C62.8278 89.7758 62.6919 89.7393 62.6025 89.6996L62.9604 88.4815C63.2322 88.5545 63.4741 88.5859 63.6863 88.576C63.8984 88.5661 64.0856 88.4865 64.248 88.3374C64.4138 88.1882 64.5596 87.9446 64.6855 87.6065L64.8695 87.0994L62.0755 79.3636H63.6664L65.6003 85.2898H65.6799L67.6138 79.3636H69.2097L66.0627 88.0192C65.9168 88.4169 65.7312 88.7533 65.5059 89.0284C65.2805 89.3068 65.012 89.5156 64.7005 89.6548C64.3889 89.794 64.0276 89.8636 63.6167 89.8636ZM72.0932 82.4659V87H70.6067V79.3636H72.0336V80.6065H72.128C72.3037 80.2022 72.5788 79.8774 72.9533 79.6321C73.3311 79.3868 73.8068 79.2642 74.3801 79.2642C74.9005 79.2642 75.3562 79.3736 75.7473 79.5923C76.1384 79.8078 76.4417 80.1293 76.6571 80.5568C76.8726 80.9844 76.9803 81.513 76.9803 82.1428V87H75.4938V82.3217C75.4938 81.7682 75.3496 81.3357 75.0613 81.0241C74.7729 80.7093 74.3768 80.5518 73.873 80.5518C73.5283 80.5518 73.2218 80.6264 72.9533 80.7756C72.6882 80.9247 72.4777 81.1435 72.3219 81.4318C72.1694 81.7169 72.0932 82.0616 72.0932 82.4659ZM82.1905 87.1541C81.4514 87.1541 80.815 86.9867 80.2814 86.652C79.7511 86.3139 79.3435 85.8482 79.0584 85.255C78.7734 84.6617 78.6309 83.9822 78.6309 83.2166C78.6309 82.4411 78.7767 81.7566 79.0684 81.1634C79.36 80.5668 79.771 80.1011 80.3013 79.7663C80.8316 79.4316 81.4564 79.2642 82.1756 79.2642C82.7556 79.2642 83.2727 79.3719 83.7267 79.5874C84.1808 79.7995 84.5471 80.0978 84.8255 80.4822C85.1072 80.8667 85.2746 81.3158 85.3276 81.8295H83.8809C83.8013 81.4716 83.619 81.1634 83.334 80.9048C83.0523 80.6463 82.6744 80.517 82.2005 80.517C81.7862 80.517 81.4232 80.6264 81.1117 80.8452C80.8034 81.0606 80.5632 81.3688 80.3908 81.7699C80.2185 82.1676 80.1323 82.6383 80.1323 83.1818C80.1323 83.7386 80.2168 84.2192 80.3858 84.6236C80.5549 85.0279 80.7935 85.3411 81.1017 85.5632C81.4133 85.7853 81.7795 85.8963 82.2005 85.8963C82.4822 85.8963 82.7374 85.8449 82.9661 85.7422C83.1981 85.6361 83.392 85.4853 83.5478 85.2898C83.7069 85.0942 83.8179 84.8589 83.8809 84.5838H85.3276C85.2746 85.0777 85.1138 85.5185 84.8453 85.9062C84.5769 86.294 84.2173 86.599 83.7665 86.821C83.3191 87.0431 82.7937 87.1541 82.1905 87.1541ZM92.2779 87L90.0307 79.3636H91.5669L93.0634 84.9716H93.138L94.6394 79.3636H96.1756L97.6671 84.9467H97.7417L99.2282 79.3636H100.764L98.5222 87H97.0059L95.4547 81.4865H95.3404L93.7892 87H92.2779ZM102.175 87V79.3636H103.662V87H102.175ZM102.926 78.1854C102.667 78.1854 102.445 78.0992 102.26 77.9268C102.077 77.7512 101.986 77.5424 101.986 77.3004C101.986 77.0552 102.077 76.8464 102.26 76.674C102.445 76.4983 102.667 76.4105 102.926 76.4105C103.184 76.4105 103.405 76.4983 103.587 76.674C103.773 76.8464 103.865 77.0552 103.865 77.3004C103.865 77.5424 103.773 77.7512 103.587 77.9268C103.405 78.0992 103.184 78.1854 102.926 78.1854ZM109.226 79.3636V80.5568H105.055V79.3636H109.226ZM106.173 77.5341H107.66V84.7578C107.66 85.0462 107.703 85.2633 107.789 85.4091C107.875 85.5516 107.986 85.6494 108.122 85.7024C108.262 85.7521 108.412 85.777 108.575 85.777C108.694 85.777 108.798 85.7687 108.888 85.7521C108.977 85.7356 109.047 85.7223 109.097 85.7124L109.365 86.9403C109.279 86.9735 109.156 87.0066 108.997 87.0398C108.838 87.0762 108.639 87.0961 108.401 87.0994C108.01 87.1061 107.645 87.0365 107.307 86.8906C106.969 86.7448 106.695 86.5194 106.487 86.2145C106.278 85.9096 106.173 85.5268 106.173 85.0661V77.5341ZM112.521 82.4659V87H111.034V76.8182H112.501V80.6065H112.596C112.775 80.1955 113.048 79.8691 113.416 79.6271C113.784 79.3852 114.264 79.2642 114.858 79.2642C115.381 79.2642 115.839 79.3719 116.23 79.5874C116.624 79.8028 116.929 80.1243 117.145 80.5518C117.363 80.9761 117.473 81.5064 117.473 82.1428V87H115.986V82.3217C115.986 81.7616 115.842 81.3274 115.554 81.0192C115.265 80.7076 114.864 80.5518 114.35 80.5518C113.999 80.5518 113.684 80.6264 113.406 80.7756C113.131 80.9247 112.914 81.1435 112.755 81.4318C112.599 81.7169 112.521 82.0616 112.521 82.4659ZM126.02 87.1491C125.404 87.1491 124.853 86.9917 124.369 86.6768C123.889 86.3587 123.511 85.9062 123.236 85.3196C122.964 84.7296 122.828 84.022 122.828 83.1967C122.828 82.3714 122.966 81.6655 123.241 81.0788C123.519 80.4922 123.901 80.0431 124.384 79.7315C124.868 79.42 125.417 79.2642 126.03 79.2642C126.504 79.2642 126.885 79.3438 127.173 79.5028C127.465 79.6586 127.691 79.8409 127.85 80.0497C128.012 80.2585 128.138 80.4425 128.227 80.6016H128.317V76.8182H129.803V87H128.352V85.8118H128.227C128.138 85.9742 128.009 86.1598 127.84 86.3686C127.674 86.5774 127.445 86.7597 127.154 86.9155C126.862 87.0713 126.484 87.1491 126.02 87.1491ZM126.348 85.8814C126.776 85.8814 127.137 85.7687 127.432 85.5433C127.73 85.3146 127.956 84.9981 128.108 84.5938C128.264 84.1894 128.342 83.7187 128.342 83.1818C128.342 82.6515 128.266 82.1875 128.113 81.7898C127.961 81.392 127.737 81.0821 127.442 80.8601C127.147 80.638 126.782 80.527 126.348 80.527C125.901 80.527 125.528 80.643 125.23 80.875C124.931 81.107 124.706 81.4235 124.553 81.8246C124.404 82.2256 124.33 82.678 124.33 83.1818C124.33 83.6922 124.406 84.1513 124.558 84.5589C124.711 84.9666 124.936 85.2898 125.235 85.5284C125.536 85.7637 125.907 85.8814 126.348 85.8814ZM134.147 87.169C133.663 87.169 133.226 87.0795 132.835 86.9006C132.444 86.7183 132.134 86.4548 131.905 86.1101C131.68 85.7654 131.567 85.3428 131.567 84.8423C131.567 84.4115 131.65 84.0568 131.816 83.7784C131.981 83.5 132.205 83.2796 132.487 83.1172C132.769 82.9548 133.083 82.8321 133.431 82.7493C133.779 82.6664 134.134 82.6035 134.495 82.5604C134.953 82.5073 135.324 82.4643 135.609 82.4311C135.894 82.3946 136.101 82.3366 136.23 82.2571C136.36 82.1776 136.424 82.0483 136.424 81.8693V81.8345C136.424 81.4003 136.302 81.0639 136.056 80.8253C135.815 80.5866 135.453 80.4673 134.973 80.4673C134.472 80.4673 134.078 80.5784 133.789 80.8004C133.504 81.0192 133.307 81.2628 133.198 81.5312L131.801 81.2131C131.967 80.7491 132.208 80.3745 132.527 80.0895C132.848 79.8011 133.218 79.5923 133.635 79.4631C134.053 79.3305 134.492 79.2642 134.953 79.2642C135.258 79.2642 135.581 79.3007 135.922 79.3736C136.267 79.4432 136.588 79.5724 136.887 79.7614C137.188 79.9503 137.435 80.2204 137.627 80.5717C137.82 80.9197 137.916 81.3722 137.916 81.929V87H136.464V85.956H136.404C136.308 86.1482 136.164 86.3371 135.972 86.5227C135.78 86.7083 135.533 86.8625 135.231 86.9851C134.93 87.1077 134.568 87.169 134.147 87.169ZM134.471 85.9759C134.882 85.9759 135.233 85.8946 135.525 85.7322C135.819 85.5698 136.043 85.3577 136.196 85.0959C136.351 84.8307 136.429 84.5473 136.429 84.2457V83.2614C136.376 83.3144 136.274 83.3641 136.121 83.4105C135.972 83.4536 135.801 83.4917 135.609 83.5249C135.417 83.5547 135.23 83.5829 135.047 83.6094C134.865 83.6326 134.712 83.6525 134.59 83.669C134.301 83.7055 134.038 83.7668 133.799 83.853C133.564 83.9392 133.375 84.0634 133.233 84.2259C133.093 84.3849 133.024 84.5971 133.024 84.8622C133.024 85.2301 133.16 85.5085 133.431 85.6974C133.703 85.883 134.05 85.9759 134.471 85.9759ZM145.618 81.228L144.271 81.4666C144.214 81.2943 144.125 81.1302 144.002 80.9744C143.883 80.8187 143.721 80.6911 143.515 80.5916C143.31 80.4922 143.053 80.4425 142.744 80.4425C142.324 80.4425 141.972 80.5369 141.691 80.7259C141.409 80.9115 141.268 81.1518 141.268 81.4467C141.268 81.7019 141.362 81.9074 141.551 82.0632C141.74 82.219 142.045 82.3466 142.466 82.446L143.679 82.7244C144.382 82.8868 144.905 83.1371 145.25 83.4751C145.595 83.8132 145.767 84.2524 145.767 84.7926C145.767 85.25 145.635 85.6577 145.369 86.0156C145.108 86.3703 144.741 86.6487 144.271 86.8509C143.803 87.053 143.262 87.1541 142.645 87.1541C141.79 87.1541 141.092 86.9718 140.552 86.6072C140.012 86.2393 139.68 85.7173 139.558 85.0412L140.994 84.8224C141.084 85.197 141.268 85.4804 141.546 85.6726C141.825 85.8615 142.188 85.956 142.635 85.956C143.122 85.956 143.512 85.8549 143.803 85.6527C144.095 85.4472 144.241 85.197 144.241 84.902C144.241 84.6634 144.151 84.4628 143.972 84.3004C143.797 84.138 143.527 84.0154 143.162 83.9325L141.869 83.6491C141.157 83.4867 140.63 83.2282 140.289 82.8736C139.95 82.5189 139.781 82.0698 139.781 81.5263C139.781 81.0755 139.907 80.6811 140.159 80.343C140.411 80.005 140.759 79.7415 141.203 79.5526C141.647 79.3603 142.156 79.2642 142.73 79.2642C143.555 79.2642 144.204 79.4432 144.678 79.8011C145.152 80.1558 145.466 80.6314 145.618 81.228ZM148.888 82.4659V87H147.402V76.8182H148.868V80.6065H148.963C149.142 80.1955 149.415 79.8691 149.783 79.6271C150.151 79.3852 150.632 79.2642 151.225 79.2642C151.748 79.2642 152.206 79.3719 152.597 79.5874C152.991 79.8028 153.296 80.1243 153.512 80.5518C153.73 80.9761 153.84 81.5064 153.84 82.1428V87H152.353V82.3217C152.353 81.7616 152.209 81.3274 151.921 81.0192C151.632 80.7076 151.231 80.5518 150.718 80.5518C150.366 80.5518 150.051 80.6264 149.773 80.7756C149.498 80.9247 149.281 81.1435 149.122 81.4318C148.966 81.7169 148.888 82.0616 148.888 82.4659ZM155.943 87V76.8182H157.429V80.6016H157.519C157.605 80.4425 157.729 80.2585 157.892 80.0497C158.054 79.8409 158.279 79.6586 158.568 79.5028C158.856 79.3438 159.237 79.2642 159.711 79.2642C160.328 79.2642 160.878 79.42 161.362 79.7315C161.846 80.0431 162.225 80.4922 162.5 81.0788C162.779 81.6655 162.918 82.3714 162.918 83.1967C162.918 84.022 162.78 84.7296 162.505 85.3196C162.23 85.9062 161.852 86.3587 161.372 86.6768C160.891 86.9917 160.343 87.1491 159.726 87.1491C159.262 87.1491 158.883 87.0713 158.588 86.9155C158.296 86.7597 158.067 86.5774 157.902 86.3686C157.736 86.1598 157.608 85.9742 157.519 85.8118H157.395V87H155.943ZM157.4 83.1818C157.4 83.7187 157.477 84.1894 157.633 84.5938C157.789 84.9981 158.014 85.3146 158.309 85.5433C158.604 85.7687 158.966 85.8814 159.393 85.8814C159.837 85.8814 160.208 85.7637 160.507 85.5284C160.805 85.2898 161.03 84.9666 161.183 84.5589C161.339 84.1513 161.417 83.6922 161.417 83.1818C161.417 82.678 161.34 82.2256 161.188 81.8246C161.039 81.4235 160.813 81.107 160.512 80.875C160.213 80.643 159.841 80.527 159.393 80.527C158.962 80.527 158.598 80.638 158.299 80.8601C158.004 81.0821 157.781 81.392 157.628 81.7898C157.476 82.1875 157.4 82.6515 157.4 83.1818ZM167.804 87.1541C167.088 87.1541 166.463 86.9901 165.93 86.6619C165.396 86.3338 164.982 85.8748 164.687 85.2848C164.392 84.6948 164.244 84.0054 164.244 83.2166C164.244 82.4245 164.392 81.7318 164.687 81.1385C164.982 80.5452 165.396 80.0845 165.93 79.7564C166.463 79.4283 167.088 79.2642 167.804 79.2642C168.52 79.2642 169.144 79.4283 169.678 79.7564C170.212 80.0845 170.626 80.5452 170.921 81.1385C171.216 81.7318 171.363 82.4245 171.363 83.2166C171.363 84.0054 171.216 84.6948 170.921 85.2848C170.626 85.8748 170.212 86.3338 169.678 86.6619C169.144 86.9901 168.52 87.1541 167.804 87.1541ZM167.809 85.9062C168.273 85.9062 168.657 85.7836 168.962 85.5384C169.267 85.2931 169.492 84.9666 169.638 84.5589C169.787 84.1513 169.862 83.7022 169.862 83.2116C169.862 82.7244 169.787 82.277 169.638 81.8693C169.492 81.4583 169.267 81.1286 168.962 80.88C168.657 80.6314 168.273 80.5071 167.809 80.5071C167.341 80.5071 166.954 80.6314 166.645 80.88C166.34 81.1286 166.113 81.4583 165.964 81.8693C165.818 82.277 165.746 82.7244 165.746 83.2116C165.746 83.7022 165.818 84.1513 165.964 84.5589C166.113 84.9666 166.34 85.2931 166.645 85.5384C166.954 85.7836 167.341 85.9062 167.809 85.9062ZM175.245 87.169C174.761 87.169 174.324 87.0795 173.933 86.9006C173.541 86.7183 173.232 86.4548 173.003 86.1101C172.777 85.7654 172.665 85.3428 172.665 84.8423C172.665 84.4115 172.748 84.0568 172.913 83.7784C173.079 83.5 173.303 83.2796 173.585 83.1172C173.866 82.9548 174.181 82.8321 174.529 82.7493C174.877 82.6664 175.232 82.6035 175.593 82.5604C176.05 82.5073 176.422 82.4643 176.707 82.4311C176.992 82.3946 177.199 82.3366 177.328 82.2571C177.457 82.1776 177.522 82.0483 177.522 81.8693V81.8345C177.522 81.4003 177.399 81.0639 177.154 80.8253C176.912 80.5866 176.551 80.4673 176.07 80.4673C175.57 80.4673 175.175 80.5784 174.887 80.8004C174.602 81.0192 174.405 81.2628 174.295 81.5312L172.898 81.2131C173.064 80.7491 173.306 80.3745 173.624 80.0895C173.946 79.8011 174.315 79.5923 174.733 79.4631C175.151 79.3305 175.59 79.2642 176.05 79.2642C176.355 79.2642 176.679 79.3007 177.02 79.3736C177.365 79.4432 177.686 79.5724 177.984 79.7614C178.286 79.9503 178.533 80.2204 178.725 80.5717C178.917 80.9197 179.013 81.3722 179.013 81.929V87H177.562V85.956H177.502C177.406 86.1482 177.262 86.3371 177.07 86.5227C176.877 86.7083 176.63 86.8625 176.329 86.9851C176.027 87.1077 175.666 87.169 175.245 87.169ZM175.568 85.9759C175.979 85.9759 176.33 85.8946 176.622 85.7322C176.917 85.5698 177.141 85.3577 177.293 85.0959C177.449 84.8307 177.527 84.5473 177.527 84.2457V83.2614C177.474 83.3144 177.371 83.3641 177.219 83.4105C177.07 83.4536 176.899 83.4917 176.707 83.5249C176.514 83.5547 176.327 83.5829 176.145 83.6094C175.963 83.6326 175.81 83.6525 175.688 83.669C175.399 83.7055 175.136 83.7668 174.897 83.853C174.662 83.9392 174.473 84.0634 174.33 84.2259C174.191 84.3849 174.121 84.5971 174.121 84.8622C174.121 85.2301 174.257 85.5085 174.529 85.6974C174.801 85.883 175.147 85.9759 175.568 85.9759ZM180.993 87V79.3636H182.43V80.5767H182.51C182.649 80.1657 182.894 79.8426 183.246 79.6072C183.6 79.3686 184.001 79.2493 184.449 79.2493C184.541 79.2493 184.651 79.2526 184.777 79.2592C184.906 79.2659 185.007 79.2741 185.08 79.2841V80.706C185.02 80.6894 184.914 80.6712 184.762 80.6513C184.609 80.6281 184.457 80.6165 184.305 80.6165C183.953 80.6165 183.64 80.6911 183.365 80.8402C183.093 80.986 182.878 81.1899 182.719 81.4517C182.559 81.7102 182.48 82.0052 182.48 82.3366V87H180.993ZM188.952 87.1491C188.335 87.1491 187.785 86.9917 187.301 86.6768C186.821 86.3587 186.443 85.9062 186.168 85.3196C185.896 84.7296 185.76 84.022 185.76 83.1967C185.76 82.3714 185.897 81.6655 186.173 81.0788C186.451 80.4922 186.832 80.0431 187.316 79.7315C187.8 79.42 188.348 79.2642 188.962 79.2642C189.436 79.2642 189.817 79.3438 190.105 79.5028C190.397 79.6586 190.622 79.8409 190.781 80.0497C190.944 80.2585 191.07 80.4425 191.159 80.6016H191.249V76.8182H192.735V87H191.283V85.8118H191.159C191.07 85.9742 190.94 86.1598 190.771 86.3686C190.606 86.5774 190.377 86.7597 190.085 86.9155C189.794 87.0713 189.416 87.1491 188.952 87.1491ZM189.28 85.8814C189.707 85.8814 190.069 85.7687 190.364 85.5433C190.662 85.3146 190.887 84.9981 191.04 84.5938C191.196 84.1894 191.273 83.7187 191.273 83.1818C191.273 82.6515 191.197 82.1875 191.045 81.7898C190.892 81.392 190.669 81.0821 190.374 80.8601C190.079 80.638 189.714 80.527 189.28 80.527C188.832 80.527 188.46 80.643 188.161 80.875C187.863 81.107 187.638 81.4235 187.485 81.8246C187.336 82.2256 187.261 82.678 187.261 83.1818C187.261 83.6922 187.338 84.1513 187.49 84.5589C187.643 84.9666 187.868 85.2898 188.166 85.5284C188.468 85.7637 188.839 85.8814 189.28 85.8814ZM20.2905 107.154C19.5381 107.154 18.8902 106.993 18.3466 106.672C17.8063 106.347 17.3887 105.891 17.0938 105.305C16.8021 104.715 16.6562 104.024 16.6562 103.232C16.6562 102.449 16.8021 101.76 17.0938 101.163C17.3887 100.567 17.7997 100.101 18.3267 99.7663C18.857 99.4316 19.4768 99.2642 20.1861 99.2642C20.617 99.2642 21.0346 99.3355 21.4389 99.478C21.8433 99.6205 22.2062 99.8442 22.5277 100.149C22.8492 100.454 23.1027 100.85 23.2884 101.337C23.474 101.821 23.5668 102.41 23.5668 103.102V103.629H17.4964V102.516H22.1101C22.1101 102.125 22.0305 101.778 21.8714 101.477C21.7124 101.172 21.4886 100.931 21.2003 100.756C20.9152 100.58 20.5805 100.492 20.196 100.492C19.7784 100.492 19.4138 100.595 19.1023 100.8C18.794 101.003 18.5554 101.268 18.3864 101.596C18.2206 101.921 18.1378 102.274 18.1378 102.655V103.525C18.1378 104.035 18.2273 104.469 18.4062 104.827C18.5885 105.185 18.8421 105.459 19.1669 105.648C19.4917 105.833 19.8712 105.926 20.3054 105.926C20.5871 105.926 20.844 105.886 21.076 105.807C21.308 105.724 21.5085 105.601 21.6776 105.439C21.8466 105.277 21.9759 105.076 22.0653 104.837L23.4723 105.091C23.3596 105.505 23.1574 105.868 22.8658 106.18C22.5774 106.488 22.2145 106.728 21.777 106.901C21.3428 107.07 20.8473 107.154 20.2905 107.154ZM26.7026 102.466V107H25.2161V99.3636H26.6429V100.607H26.7374C26.9131 100.202 27.1882 99.8774 27.5627 99.6321C27.9405 99.3868 28.4161 99.2642 28.9895 99.2642C29.5099 99.2642 29.9656 99.3736 30.3567 99.5923C30.7478 99.8078 31.0511 100.129 31.2665 100.557C31.4819 100.984 31.5897 101.513 31.5897 102.143V107H30.1032V102.322C30.1032 101.768 29.959 101.336 29.6706 101.024C29.3823 100.709 28.9862 100.552 28.4824 100.552C28.1377 100.552 27.8311 100.626 27.5627 100.776C27.2975 100.925 27.0871 101.143 26.9313 101.432C26.7788 101.717 26.7026 102.062 26.7026 102.466ZM35.8056 107.169C35.3217 107.169 34.8842 107.08 34.4931 106.901C34.102 106.718 33.7921 106.455 33.5634 106.11C33.338 105.765 33.2253 105.343 33.2253 104.842C33.2253 104.411 33.3082 104.057 33.4739 103.778C33.6396 103.5 33.8633 103.28 34.1451 103.117C34.4268 102.955 34.7417 102.832 35.0897 102.749C35.4377 102.666 35.7923 102.603 36.1536 102.56C36.611 102.507 36.9822 102.464 37.2672 102.431C37.5523 102.395 37.7594 102.337 37.8887 102.257C38.0179 102.178 38.0826 102.048 38.0826 101.869V101.835C38.0826 101.4 37.9599 101.064 37.7147 100.825C37.4727 100.587 37.1114 100.467 36.6309 100.467C36.1304 100.467 35.736 100.578 35.4476 100.8C35.1626 101.019 34.9654 101.263 34.856 101.531L33.459 101.213C33.6247 100.749 33.8667 100.375 34.1848 100.089C34.5063 99.8011 34.8759 99.5923 35.2935 99.4631C35.7111 99.3305 36.1503 99.2642 36.611 99.2642C36.9159 99.2642 37.2391 99.3007 37.5804 99.3736C37.9251 99.4432 38.2466 99.5724 38.5449 99.7614C38.8465 99.9503 39.0935 100.22 39.2857 100.572C39.4779 100.92 39.574 101.372 39.574 101.929V107H38.1223V105.956H38.0627C37.9666 106.148 37.8224 106.337 37.6301 106.523C37.4379 106.708 37.191 106.862 36.8894 106.985C36.5878 107.108 36.2265 107.169 35.8056 107.169ZM36.1287 105.976C36.5397 105.976 36.891 105.895 37.1827 105.732C37.4777 105.57 37.7014 105.358 37.8539 105.096C38.0096 104.831 38.0875 104.547 38.0875 104.246V103.261C38.0345 103.314 37.9318 103.364 37.7793 103.411C37.6301 103.454 37.4595 103.492 37.2672 103.525C37.075 103.555 36.8877 103.583 36.7054 103.609C36.5231 103.633 36.3707 103.652 36.248 103.669C35.9597 103.705 35.6962 103.767 35.4576 103.853C35.2222 103.939 35.0333 104.063 34.8908 104.226C34.7516 104.385 34.682 104.597 34.682 104.862C34.682 105.23 34.8179 105.509 35.0897 105.697C35.3614 105.883 35.7078 105.976 36.1287 105.976ZM41.6733 107V96.8182H43.1598V100.602H43.2493C43.3355 100.442 43.4598 100.259 43.6222 100.05C43.7846 99.8409 44.0099 99.6586 44.2983 99.5028C44.5866 99.3438 44.9678 99.2642 45.4418 99.2642C46.0582 99.2642 46.6084 99.42 47.0923 99.7315C47.5762 100.043 47.9557 100.492 48.2308 101.079C48.5092 101.665 48.6484 102.371 48.6484 103.197C48.6484 104.022 48.5109 104.73 48.2358 105.32C47.9607 105.906 47.5829 106.359 47.1023 106.677C46.6217 106.992 46.0732 107.149 45.4567 107.149C44.9927 107.149 44.6132 107.071 44.3182 106.915C44.0265 106.76 43.7978 106.577 43.6321 106.369C43.4664 106.16 43.3388 105.974 43.2493 105.812H43.125V107H41.6733ZM43.13 103.182C43.13 103.719 43.2079 104.189 43.3636 104.594C43.5194 104.998 43.7448 105.315 44.0398 105.543C44.3348 105.769 44.696 105.881 45.1236 105.881C45.5677 105.881 45.9389 105.764 46.2372 105.528C46.5355 105.29 46.7609 104.967 46.9134 104.559C47.0691 104.151 47.147 103.692 47.147 103.182C47.147 102.678 47.0708 102.226 46.9183 101.825C46.7692 101.424 46.5438 101.107 46.2422 100.875C45.9439 100.643 45.571 100.527 45.1236 100.527C44.6927 100.527 44.3281 100.638 44.0298 100.86C43.7348 101.082 43.5111 101.392 43.3587 101.79C43.2062 102.187 43.13 102.652 43.13 103.182ZM51.8042 96.8182V107H50.3176V96.8182H51.8042ZM57.0952 107.154C56.3428 107.154 55.6948 106.993 55.1513 106.672C54.611 106.347 54.1934 105.891 53.8984 105.305C53.6068 104.715 53.4609 104.024 53.4609 103.232C53.4609 102.449 53.6068 101.76 53.8984 101.163C54.1934 100.567 54.6044 100.101 55.1314 99.7663C55.6617 99.4316 56.2815 99.2642 56.9908 99.2642C57.4216 99.2642 57.8393 99.3355 58.2436 99.478C58.648 99.6205 59.0109 99.8442 59.3324 100.149C59.6539 100.454 59.9074 100.85 60.093 101.337C60.2786 101.821 60.3714 102.41 60.3714 103.102V103.629H54.3011V102.516H58.9148C58.9148 102.125 58.8352 101.778 58.6761 101.477C58.517 101.172 58.2933 100.931 58.005 100.756C57.7199 100.58 57.3852 100.492 57.0007 100.492C56.5831 100.492 56.2185 100.595 55.907 100.8C55.5987 101.003 55.3601 101.268 55.1911 101.596C55.0253 101.921 54.9425 102.274 54.9425 102.655V103.525C54.9425 104.035 55.032 104.469 55.2109 104.827C55.3932 105.185 55.6468 105.459 55.9716 105.648C56.2964 105.833 56.6759 105.926 57.1101 105.926C57.3918 105.926 57.6487 105.886 57.8807 105.807C58.1127 105.724 58.3132 105.601 58.4822 105.439C58.6513 105.277 58.7805 105.076 58.87 104.837L60.277 105.091C60.1643 105.505 59.9621 105.868 59.6705 106.18C59.3821 106.488 59.0192 106.728 58.5817 106.901C58.1475 107.07 57.652 107.154 57.0952 107.154ZM64.8794 107.149C64.263 107.149 63.7128 106.992 63.2289 106.677C62.7483 106.359 62.3704 105.906 62.0953 105.32C61.8236 104.73 61.6877 104.022 61.6877 103.197C61.6877 102.371 61.8252 101.665 62.1003 101.079C62.3787 100.492 62.7599 100.043 63.2438 99.7315C63.7277 99.42 64.2762 99.2642 64.8894 99.2642C65.3633 99.2642 65.7445 99.3438 66.0328 99.5028C66.3245 99.6586 66.5499 99.8409 66.709 100.05C66.8714 100.259 66.9973 100.442 67.0868 100.602H67.1763V96.8182H68.6628V107H67.2111V105.812H67.0868C66.9973 105.974 66.8681 106.16 66.699 106.369C66.5333 106.577 66.3046 106.76 66.013 106.915C65.7213 107.071 65.3435 107.149 64.8794 107.149ZM65.2076 105.881C65.6351 105.881 65.9964 105.769 66.2914 105.543C66.5897 105.315 66.815 104.998 66.9675 104.594C67.1233 104.189 67.2012 103.719 67.2012 103.182C67.2012 102.652 67.1249 102.187 66.9725 101.79C66.82 101.392 66.5963 101.082 66.3013 100.86C66.0063 100.638 65.6417 100.527 65.2076 100.527C64.7601 100.527 64.3873 100.643 64.089 100.875C63.7907 101.107 63.5653 101.424 63.4128 101.825C63.2637 102.226 63.1891 102.678 63.1891 103.182C63.1891 103.692 63.2653 104.151 63.4178 104.559C63.5703 104.967 63.7956 105.29 64.0939 105.528C64.3955 105.764 64.7667 105.881 65.2076 105.881Z" fill="#DFE2F3"/>
<defs>
<linearGradient id="paint0_linear_2_182" x1="114.665" y1="128" x2="114.665" y2="0" gradientUnits="userSpaceOnUse">
<stop stop-color="#1B1F2C"/>
<stop offset="1" stop-color="#1B1F2C" stop-opacity="0"/>
</linearGradient>
</defs>
</svg>
